<svg xmlns="http://www.w3.org/2000/svg" width="1200" height="300" viewBox="0 0 1200 300" role="img" aria-labelledby="title description">
  <title id="title">Киноархив</title>
  <desc id="description">Поиск по фильмам и людям кино, ответы с источниками</desc>
  <defs>
    <linearGradient id="background" x1="0" y1="0" x2="1" y2="1">
      <stop offset="0" stop-color="#DAEBE3"/>
      <stop offset="0.52" stop-color="#F6F7F2"/>
      <stop offset="1" stop-color="#FDE8D3"/>
    </linearGradient>
    <filter id="shadow" x="-25%" y="-40%" width="150%" height="200%">
      <feDropShadow dx="0" dy="10" stdDeviation="12" flood-color="#657166" flood-opacity="0.12"/>
    </filter>
  </defs>
  <rect width="1200" height="300" rx="28" fill="url(#background)"/>
  <path d="M0 240C165 173 294 225 455 300H0Z" fill="#99CDD8" opacity="0.25"/>
  <text x="66" y="119" fill="#303B35" font-family="-apple-system, BlinkMacSystemFont, 'Segoe UI', Arial, sans-serif" font-size="64" font-weight="700" letter-spacing="-3">Киноархив</text>
  <text x="69" y="160" fill="#4D5B50" font-family="-apple-system, BlinkMacSystemFont, 'Segoe UI', Arial, sans-serif" font-size="22">Вопрос о кино → ответ с источниками</text>
  <rect x="68" y="197" width="104" height="35" rx="17.5" fill="#99CDD8"/>
  <text x="90" y="221" fill="#303B35" font-family="-apple-system, BlinkMacSystemFont, 'Segoe UI', Arial, sans-serif" font-size="15" font-weight="600">Поиск</text>
  <rect x="183" y="197" width="159" height="35" rx="17.5" fill="#CFD6C4"/>
  <text x="205" y="221" fill="#303B35" font-family="-apple-system, BlinkMacSystemFont, 'Segoe UI', Arial, sans-serif" font-size="15" font-weight="600">BM25 + векторы</text>
  <rect x="353" y="197" width="111" height="35" rx="17.5" fill="#F3C3B2"/>
  <text x="376" y="221" fill="#303B35" font-family="-apple-system, BlinkMacSystemFont, 'Segoe UI', Arial, sans-serif" font-size="15" font-weight="600">Qwen 3.5</text>
  <g filter="url(#shadow)">
    <rect x="833" y="42" width="287" height="76" rx="29" fill="#99CDD8"/>
    <rect x="801" y="94" width="319" height="76" rx="29" fill="#DAEBE3"/>
    <rect x="827" y="146" width="293" height="76" rx="29" fill="#F3C3B2"/>
    <rect x="782" y="198" width="338" height="64" rx="29" fill="#657166"/>
  </g>
  <circle cx="859" cy="230" r="10" stroke="#FFFDF9" stroke-width="3" fill="none"/>
  <path d="m866 237 8 8" stroke="#FFFDF9" stroke-width="3" stroke-linecap="round"/>
  <text x="890" y="238" fill="#FFFDF9" font-family="-apple-system, BlinkMacSystemFont, 'Segoe UI', Arial, sans-serif" font-size="18" font-weight="600">найди · спроси · проверь</text>
</svg>
